<svg width="215" height="326" viewBox="0 0 215 326" fill="none" xmlns="http://www.w3.org/2000/svg">
<path d="M44.9545 133.192L137.164 -3.00002H215L123.946 110.674L149.318 110.751C163.269 110.777 174.691 110.88 174.674 111.008C174.674 111.111 157.794 131.056 137.164 155.325C87.0458 214.311 81.3608 221.002 81.4306 221.105C81.4829 221.182 99.5491 220.899 117.005 220.565L124.8 220.41L125.044 221.646C125.184 222.34 125.236 222.958 125.184 223.061C125.131 223.138 109.001 236.443 89.3302 252.605C69.6771 268.767 41.8453 291.646 27.5109 303.459C13.1765 315.246 1.31838 324.948 1.17887 325.025C0.86498 325.205 -0.111573 323.507 0.0104966 323.044C0.062812 322.863 11.2932 304.514 24.9649 282.227C38.6367 259.94 49.8147 241.694 49.7798 241.642C49.7624 241.616 44.8796 241.436 38.9331 241.282C32.9866 241.102 26.0112 240.896 23.4478 240.819L18.7743 240.638L39.4911 210.27C94.7361 129.306 92.1029 133.192 91.5623 133.192H44.9545Z" fill="white" fill-opacity="0.8"/>
</svg>
